<svg xmlns="http://www.w3.org/2000/svg" viewBox="0 0 512 512">
  <defs>
    <linearGradient id="bg" x1="0" y1="0" x2="1" y2="1">
      <stop offset="0%" stop-color="#1a0f0a"/>
      <stop offset="100%" stop-color="#0e0a05"/>
    </linearGradient>
  </defs>
  <rect width="512" height="512" rx="80" fill="url(#bg)"/>
  <g fill="#d4a853" stroke="#d4a853" stroke-width="2">
    <!-- Navalha -->
    <path d="M160 160 Q256 100 352 160 L340 190 Q256 140 172 190 Z" fill="#d4a853"/>
    <rect x="240" y="130" width="32" height="60" rx="4" fill="#d4a853" stroke="none"/>
    <!-- Lâmina -->
    <path d="M256 130 L280 100 L270 100 L256 115 L242 100 L232 100 Z" fill="#d4a853" stroke="none"/>
    <!-- Tesoura -->
    <path d="M200 200 Q230 240 256 290 Q282 240 312 200" fill="none" stroke-width="8"/>
    <circle cx="200" cy="200" r="12" fill="#d4a853" stroke="none"/>
    <circle cx="312" cy="200" r="12" fill="#d4a853" stroke="none"/>
    <!-- Pente -->
    <rect x="220" y="340" width="72" height="10" rx="3" fill="#d4a853" stroke="none"/>
    <rect x="220" y="358" width="72" height="10" rx="3" fill="#d4a853" stroke="none"/>
    <rect x="220" y="376" width="72" height="10" rx="3" fill="#d4a853" stroke="none"/>
    <rect x="220" y="394" width="72" height="10" rx="3" fill="#d4a853" stroke="none"/>
    <!-- Estrela -->
    <polygon points="256,60 268,85 296,88 275,108 279,136 256,122 233,136 237,108 216,88 244,85" fill="#d4a853" stroke="none"/>
  </g>
</svg>
